<?xml version="1.0" encoding="UTF-8"?>
<svg id="Layer_1" data-name="Layer 1" xmlns="http://www.w3.org/2000/svg" viewBox="0 0 806.89 875.61">
  <defs>
    <style>
      .cls-1 {
        fill: #014ba3;
      }

      .cls-1, .cls-2, .cls-3, .cls-4, .cls-5, .cls-6 {
        stroke-width: 0px;
      }

      .cls-2 {
        fill: #02244f;
      }

      .cls-3 {
        fill: #02234f;
      }

      .cls-4 {
        fill: #fed203;
      }

      .cls-5 {
        fill: #9fe3fe;
      }

      .cls-6 {
        fill: #014ba3;
      }
    </style>
  </defs>
  <path class="cls-5" d="M805.88,233.06c-1.86-28.01-16.87-48.6-40.42-60.6-107.17-54.62-215-107.94-322.55-161.8-10.33-5.17-20.75-9.22-32.5-10.27-13.95-1.24-27.31.33-39.71,6.51C264.98,59.61,159.39,112.59,53.66,165.27c-13.83,6.89-26.67,14.42-36.78,26.6C6.82,204,.29,217.33.22,232.96c-.29,63.31-.28,126.62-.06,189.92.1,29.01,15.6,49.47,39.49,63.19,21.89,12.57,45.06,22.94,67.74,34.13,3.09,1.53,3.96,3.05,3.16,6.55-5.76,25.15-8.14,50.71-8.53,76.48-.13,8.14.42,16.27.83,24.4.68,13.46,2.31,26.72,5.11,39.89,5.1,23.96,14.19,46.22,26.99,67.1,8.02,13.1,19.04,23.41,29.66,34.18,8.14,8.26,17.62,14.68,27.87,19.85,46.8,23.58,93.88,46.64,140.54,70.51,30.34,15.53,62.48,18.86,95.46,14.96,33.17-3.93,63.18-17.32,91.33-34.96,30.42-19.06,56.07-43.55,79.46-70.53,20.84-24.04,38.39-50.38,53.22-78.49,13.9-26.34,25.6-53.62,34.2-82.22,8.15-27.08,13.86-54.57,16.18-82.75.42-5.09,2.04-8.48,7.31-10.96,18.67-8.77,37.07-18.14,55.41-27.59,13.96-7.19,24.52-18.09,32.08-31.79,6.67-12.08,8.86-25.39,8.99-38.93.29-28.98.09-57.97.09-95.39-.72-23.52,1.24-55.5-.87-87.45ZM766.2,419.88c-.49,14.85-7.67,25.36-20.34,31.9-25.27,13.04-50.8,25.57-76.3,38.17-3.17,1.57-4.61,3.31-4.77,7.08-1.38,30.99-5.19,61.63-14.03,91.5-5.9,19.93-13,39.37-21.61,58.31-9.72,21.38-21.02,41.82-34.2,61.23-26.03,38.36-57.12,71.78-96.35,97.01-28.59,18.38-59.51,30.43-93.93,30.91-17.6.24-34.76-3.27-50.7-11.21-47.18-23.51-94.45-46.87-141.43-70.77-21.52-10.95-37.2-28.3-48.73-49.32-14.7-26.81-20.58-55.94-21.91-86.21-1.65-37.47,3.92-73.95,14.74-109.74,2.25-7.44,2.22-7.43-4.64-10.86-30.64-15.31-61.38-30.45-91.88-46.04-12.71-6.5-20.15-16.99-20.42-31.84-1.09-59.98-.89-119.95-.15-179.93.2-16.14,8.35-26.93,21.7-33.69,56.96-28.86,114.16-57.24,171.27-85.8,50.57-25.29,101.14-50.56,151.69-75.89,12.48-6.26,24.8-6.31,37.32-.05,107.66,53.89,215.4,107.64,322.98,161.68,13.39,6.73,21.45,17.49,21.82,33.63.7,29.83.22,59.65.56,88.77-.3,30.85.32,61.01-.69,91.16Z"/>
  <path class="cls-3" d="M767.42,328.72c-.34-29.12.14-58.94-.56-88.77-.37-16.14-8.43-26.9-21.82-33.63-107.58-54.04-215.32-107.79-322.98-161.68-12.52-6.26-24.84-6.21-37.32.05-50.55,25.33-101.12,50.6-151.69,75.89-57.11,28.56-114.31,56.94-171.27,85.8-13.35,6.76-21.5,17.55-21.7,33.69-.74,59.98-.94,119.95.15,179.93.27,14.85,7.71,25.34,20.42,31.84,30.5,15.59,61.24,30.73,91.88,46.04,6.86,3.43,6.89,3.42,4.64,10.86-10.82,35.79-16.39,72.27-14.74,109.74,1.33,30.27,7.21,59.4,21.91,86.21,11.53,21.02,27.21,38.37,48.73,49.32,46.98,23.9,94.25,47.26,141.43,70.77,15.94,7.94,33.1,11.45,50.7,11.21,34.42-.48,65.34-12.53,93.93-30.91,39.23-25.23,70.32-58.65,96.35-97.01,13.18-19.41,24.48-39.85,34.2-61.23,8.61-18.94,15.71-38.38,21.61-58.31,8.84-29.87,12.65-60.51,14.03-91.5.16-3.77,1.6-5.51,4.77-7.08,25.5-12.6,51.03-25.13,76.3-38.17,12.67-6.54,19.85-17.05,20.34-31.9,1.01-30.15.39-60.31.69-91.16ZM75.61,431.37c-8.12-4.04-11.01-9.81-11.01-18.09.01-55.99.03-111.97-.02-167.96-.01-8.46,3.3-14.02,11.28-17.99,106.58-53.06,213.03-106.38,319.49-159.67,5.48-2.74,10.74-2.71,16.21.01,31.07,15.48,62.22,30.82,93.27,46.36,40.01,20.02,79.93,40.22,119.92,60.28,27.03,13.57,54.12,27.04,81.16,40.6,1.73.87,3.79,1.33,5.1,3.34-3.68,3.53-8.55,4.96-12.86,7.21-15.44,8.02-31.06,15.68-46.64,23.42-17.2,8.55-34.46,16.98-51.64,25.57-17.47,8.74-34.85,17.66-52.33,26.39-17.03,8.51-34.16,16.82-51.19,25.34-17.61,8.8-35.14,17.77-52.72,26.63-13.29,6.69-26.82,12.94-39.88,20.05-14.73,8.01-23.12,20.65-25.38,37.45-1.23,9.15-.83,18.28-.85,27.41-.1,46.15-.05,92.31-.06,138.46,0,5.9-.04,5.92-5.21,3.33-98.85-49.43-197.67-98.94-296.64-148.14ZM396.43,622.47c-.14-3.15,1.16-4.21,4.11-3.92,9.5.95,17.84-2.39,26.14-6.57,38.93-19.61,77.95-39.02,116.95-58.48,4.74-2.36,4.82-2.27,4.74,4.09-1.23,8.07-3.26,17.1-5.77,26.04-6.73,24.02-18.46,45.47-33.88,64.84-14.36,18.05-31.42,32.99-53.96,40.05-13.48,4.23-26.86,4.32-38.69-5.04-11.16-8.83-16.21-21.03-18.63-34.65-1.55-8.76-.62-17.58-1.01-26.36ZM298.86,767.87c-1.09,1.08-2.45-.38-3.55-.94-22.65-11.27-45.37-22.4-67.86-33.96-23.58-12.11-38.6-31.69-48.06-56.09-8.83-22.8-12.07-46.44-11.95-71.92-.2-29.08,5.12-58.5,13.48-87.49,1.15-3.97,2.32-4.12,5.69-2.42,24.04,12.17,48.16,24.15,72.26,36.19,11.59,5.8,23.11,11.74,34.8,17.3,3.38,1.61,3.71,3.28,2.59,6.55-5.95,17.29-9.68,35.19-12.51,53.18-3.18,20.2-3.94,40.69-3.06,61.12,1.04,24.14,5.34,47.74,14.92,70.14.66,1.53,1.44,3,2.15,4.5.58,1.25,2.59,2.38,1.1,3.84ZM635.87,541.5c-5.56,34.18-16.09,66.78-30.69,98.2-15.73,33.85-35.6,64.99-60.37,92.8-22.48,25.24-47.87,47.16-78.52,62.21-20.4,10.01-41.71,16.38-64.78,15.72-34.57-1-59.15-18.33-75.77-47.39-18.43-32.23-21.57-67.69-19.53-103.97,1.35-24.03,5.69-47.52,12.35-70.61,1.89-6.55,1.86-6.59,7.89-3.58,14,6.96,27.96,14,41.99,20.89,2.7,1.33,3.66,2.65,3.34,6.02-1.86,20.19-1.78,40.33,5.72,59.6,8.8,22.6,23.84,38.9,48.46,43.72,14.78,2.89,29.49.98,43.56-4.8,28.72-11.8,49.75-32.71,67.46-57.38,16.2-22.57,26.96-47.66,33.32-74.64,2.79-11.87,3.91-23.97,4.25-36.14.05-2.09-.32-4.19,2.29-5.48,20.55-10.19,41.04-20.49,62.51-31.24-.07,12.76-1.59,24.45-3.48,36.07ZM741.51,239.36c-.09,2.99-.25,5.98-.25,8.97,0,48.77,0,97.55.03,146.32,0,8.32.09,16.64.14,24.96-.09,6.41-4.7,9.06-9.56,11.49-23.81,11.88-47.63,23.75-71.44,35.65-82.57,41.27-165.14,82.56-247.72,123.83-9.19,4.59-9.22,4.57-9.21-5.4.01-55.49.1-110.97,0-166.46-.02-12.07,4.9-20.35,15.88-25.82,96.92-48.3,193.75-96.78,290.6-145.21,8.19-4.1,16.36-8.21,24.57-12.25,5.63-2.76,6.23-2.39,6.96,3.91h0Z"/>
  <path class="cls-2" d="M548.37,557.59c-1.23,8.07-3.26,17.1-5.77,26.04-6.73,24.02-18.46,45.47-33.88,64.84-14.36,18.05-31.42,32.99-53.96,40.05-13.48,4.23-26.86,4.32-38.69-5.04-11.16-8.83-16.21-21.03-18.63-34.65-1.55-8.76-.62-17.58-1.01-26.36-.14-3.15,1.16-4.21,4.11-3.92,9.5.95,17.84-2.39,26.14-6.57,38.93-19.61,77.95-39.02,116.95-58.48,4.74-2.36,4.82-2.27,4.74,4.09Z"/>
  <path class="cls-2" d="M639.35,505.43c-.07,12.76-1.59,24.45-3.48,36.07-5.56,34.18-16.09,66.78-30.69,98.2-15.73,33.85-35.6,64.99-60.37,92.8-22.48,25.24-47.87,47.16-78.52,62.21-20.4,10.01-41.71,16.38-64.78,15.72-34.57-1-59.15-18.33-75.77-47.39-18.43-32.23-21.57-67.69-19.53-103.97,1.35-24.03,5.69-47.52,12.35-70.61,1.89-6.55,1.86-6.59,7.89-3.58,14,6.96,27.96,14,41.99,20.89,2.7,1.33,3.66,2.65,3.34,6.02-1.86,20.19-1.78,40.33,5.72,59.6,8.8,22.6,23.84,38.9,48.46,43.72,14.78,2.89,29.49.98,43.56-4.8,28.72-11.8,49.75-32.71,67.46-57.38,16.2-22.57,26.96-47.66,33.32-74.64,2.79-11.87,3.91-23.97,4.25-36.14.05-2.09-.32-4.19,2.29-5.48,20.55-10.19,41.04-20.49,62.51-31.24Z"/>
  <path class="cls-1" d="M711.01,218.25c-3.68,3.53-8.55,4.96-12.86,7.21-15.44,8.02-31.06,15.68-46.64,23.42-17.2,8.55-34.46,16.98-51.64,25.57-17.47,8.74-34.85,17.66-52.33,26.39-17.03,8.51-34.16,16.82-51.19,25.34-17.61,8.8-35.14,17.77-52.72,26.63-13.29,6.69-26.82,12.94-39.88,20.05-14.73,8.01-23.12,20.65-25.38,37.45-1.23,9.15-.83,18.28-.85,27.41-.1,46.15-.05,92.31-.06,138.46,0,5.9-.04,5.92-5.21,3.33-98.85-49.43-197.67-98.94-296.64-148.14-8.12-4.04-11.01-9.81-11.01-18.09.01-55.99.03-111.97-.02-167.96-.01-8.46,3.3-14.02,11.28-17.99,106.58-53.06,213.03-106.38,319.49-159.67,5.48-2.74,10.74-2.71,16.21.01,31.07,15.48,62.22,30.82,93.27,46.36,40.01,20.02,79.93,40.22,119.92,60.28,27.03,13.57,54.12,27.04,81.16,40.6,1.73.87,3.79,1.33,5.1,3.34Z"/>
  <path class="cls-4" d="M741.51,239.36c-.09,2.99-.25,5.98-.25,8.97,0,48.77,0,97.55.03,146.32,0,8.32.09,16.64.14,24.96-.09,6.41-4.7,9.06-9.56,11.49-23.81,11.88-47.63,23.75-71.44,35.65-82.57,41.27-165.14,82.56-247.72,123.83-9.19,4.59-9.22,4.57-9.21-5.4.01-55.49.1-110.97,0-166.46-.02-12.07,4.9-20.35,15.88-25.82,96.92-48.3,193.75-96.78,290.6-145.21,8.19-4.1,16.36-8.21,24.57-12.25,5.63-2.76,6.23-2.39,6.96,3.91h0Z"/>
  <path class="cls-4" d="M639.35,505.43c-.07,12.76-1.59,24.45-3.48,36.07-5.56,34.18-16.09,66.78-30.69,98.2-15.73,33.85-35.6,64.99-60.37,92.8-22.48,25.24-47.87,47.16-78.52,62.21-20.4,10.01-41.71,16.38-64.78,15.72-34.57-1-59.15-18.33-75.77-47.39-18.43-32.23-21.57-67.69-19.53-103.97,1.35-24.03,5.69-47.52,12.35-70.61,1.89-6.55,1.86-6.59,7.89-3.58,14,6.96,27.96,14,41.99,20.89,2.7,1.33,3.66,2.65,3.34,6.02-1.86,20.19-1.78,40.33,5.72,59.6,8.8,22.6,23.84,38.9,48.46,43.72,14.78,2.89,29.49.98,43.56-4.8,28.72-11.8,49.75-32.71,67.46-57.38,16.2-22.57,26.96-47.66,33.32-74.64,2.79-11.87,3.91-23.97,4.25-36.14.05-2.09-.32-4.19,2.29-5.48,20.55-10.19,41.04-20.49,62.51-31.24Z"/>
  <path class="cls-6" d="M298.86,767.87c-1.09,1.08-2.45-.38-3.55-.94-22.65-11.27-45.37-22.4-67.86-33.96-23.58-12.11-38.6-31.69-48.06-56.09-8.83-22.8-12.07-46.44-11.95-71.92-.2-29.08,5.12-58.5,13.48-87.49,1.15-3.97,2.32-4.12,5.69-2.42,24.04,12.17,48.16,24.15,72.26,36.19,11.59,5.8,23.11,11.74,34.8,17.3,3.38,1.61,3.71,3.28,2.59,6.55-5.95,17.29-9.68,35.19-12.51,53.18-3.18,20.2-3.94,40.69-3.06,61.12,1.04,24.14,5.34,47.74,14.92,70.14.66,1.53,1.44,3,2.15,4.5.58,1.25,2.59,2.38,1.1,3.84Z"/>
  <path class="cls-1" d="M548.37,557.59c-1.23,8.07-3.26,17.1-5.77,26.04-6.73,24.02-18.46,45.47-33.88,64.84-14.36,18.05-31.42,32.99-53.96,40.05-13.48,4.23-26.86,4.32-38.69-5.04-11.16-8.83-16.21-21.03-18.63-34.65-1.55-8.76-.62-17.58-1.01-26.36-.14-3.15,1.16-4.21,4.11-3.92,9.5.95,17.84-2.39,26.14-6.57,38.93-19.61,77.95-39.02,116.95-58.48,4.74-2.36,4.82-2.27,4.74,4.09Z"/>
  <path class="cls-3" d="M407.21,292.62c-27.07-.39-52.29-2.75-76.53-11.15-18.17-6.3-35.09-14.79-48.38-29.37-10.83-11.89-16.12-25.65-13.53-41.52,1.97-12.03,8.57-22.17,16.62-31.25,21.35-24.08,48.98-36.07,79.99-41.8,12.77-2.36,25.58-3.99,38.54-3.8,27.26.41,53.77,4.97,78.62,16.57,22.06,10.3,40.32,25.32,51.21,47.49,9.43,19.19,6.45,36.33-8.3,53.2-17.12,19.58-40.11,28.69-64.69,34.83-18.15,4.53-36.58,6.07-53.56,6.78Z"/>
  <path class="cls-4" d="M497.66,192.06c8.1,6.25,13.35,14.04,15.36,23.18,2.32,10.54-4.27,18.09-11.63,24.38-13.86,11.86-30.59,17.88-48.02,21.94-29.54,6.88-59.32,6.58-89.2,2.28-4.43-.64-4.1-2.51-2.37-5.19,5.87-9.14,15.05-11.97,25.16-12.89,18.07-1.65,35.99-4.31,53.55-8.89,13.2-3.45,25.91-8.34,37.88-14.95,11.5-6.35,18.23-16.01,19.27-29.86Z"/>
</svg>